<svg xmlns="http://www.w3.org/2000/svg" xmlns:xlink="http://www.w3.org/1999/xlink" width="100%" height="100%" x="0" y="0" focusable="false" preserveAspectRatio="xMidYMid meet" version="1.1" viewBox="0 0 86.5 86.5" xml:space="preserve" style="enable-background:new 0 0 317.8 86.5"><g><rect style="fill:none;stroke:#555;stroke-width:2;stroke-linejoin:round;stroke-miterlimit:10" width="30" height="60" x="39" y="2.8" class="anim" transform="matrix(-0.7071 -0.7071 0.7071 -0.7071 69.033 94.234)"/><rect style="fill:none;stroke:#555;stroke-width:2;stroke-linejoin:round;stroke-miterlimit:10" width="30" height="60" x="17.8" y="2.8" class="anim" transform="matrix(-0.7071 0.7071 -0.7071 -0.7071 79.234 32.8198)"/><rect style="fill:none;opacity:.2;stroke:#555;stroke-width:2;stroke-linejoin:round;stroke-miterlimit:10" width="30" height="60" x="39" y="23.6" class="anim" transform="matrix(-0.7071 -0.7071 0.7071 -0.7071 54.3112 129.7757)"/><rect style="fill:none;opacity:.2;stroke:#555;stroke-width:2;stroke-linejoin:round;stroke-miterlimit:10" width="30" height="60" x="17.8" y="23.6" class="anim" transform="matrix(-0.7071 0.7071 -0.7071 -0.7071 93.9558 68.3614)"/><polygon style="fill:none;stroke:#555;stroke-width:2;stroke-linejoin:round;stroke-miterlimit:10" points="1 22.2 1 43 22.2 64.2 22.2 43.4" class="anim"/><polygon style="fill:none;stroke:#555;stroke-width:2;stroke-linejoin:round;stroke-miterlimit:10" points="43.4 64.6 43.4 85.5 22.2 64.2 22.2 43.4" class="anim"/><polygon style="fill:none;stroke:#555;stroke-width:2;stroke-linejoin:round;stroke-miterlimit:10" points="85.9 22.2 85.9 43 64.6 64.2 64.6 43.4" class="anim"/><polygon style="fill:none;stroke:#555;stroke-width:2;stroke-linejoin:round;stroke-miterlimit:10" points="43.4 64.6 64.6 43.4 64.6 64.2 43.4 85.5" class="anim"/><line style="opacity:.2;stroke:#555;stroke-width:2;stroke-linejoin:round;stroke-miterlimit:10" x1="22.2" x2="22.2" y1="1" y2="21.8"/><line style="opacity:.2;stroke:#555;stroke-width:2;stroke-linejoin:round;stroke-miterlimit:10" x1="64.6" x2="64.6" y1="1" y2="21.8"/><line style="opacity:.2;stroke:#555;stroke-width:2;stroke-linejoin:round;stroke-miterlimit:10" x1="43.4" x2="43.4" y1="22.1" y2="43.1"/></g></svg>